<svg xmlns="http://www.w3.org/2000/svg" xmlns:xlink="http://www.w3.org/1999/xlink" viewBox="0,0,256,256" width="48px" height="48px" fill-rule="nonzero"><g fill="#000000" fill-rule="nonzero" stroke="none" stroke-width="1" stroke-linecap="butt" stroke-linejoin="miter" stroke-miterlimit="10" stroke-dasharray="" stroke-dashoffset="0" font-family="none" font-weight="none" font-size="none" text-anchor="none" style="mix-blend-mode: normal"><path d="M128,256c-70.69245,0 -128,-57.30755 -128,-128v0c0,-70.69245 57.30755,-128 128,-128v0c70.69245,0 128,57.30755 128,128v0c0,70.69245 -57.30755,128 -128,128z" id="shape"></path></g><g fill="none" fill-rule="nonzero" stroke="none" stroke-width="1" stroke-linecap="butt" stroke-linejoin="miter" stroke-miterlimit="10" stroke-dasharray="" stroke-dashoffset="0" font-family="none" font-weight="none" font-size="none" text-anchor="none" style="mix-blend-mode: normal"><g transform="scale(5.33333,5.33333)"><path d="M33,14c0,5 -4,9 -9,9c-5,0 -9,-4 -9,-9c0,-5 4,-9 9,-9c5,0 9,4 9,9" fill="#f47712"></path><path d="M42,36.1c0,0 -5,-10.1 -18,-10.1c-13,0 -18,10.1 -18,10.1v5.9h36z" fill="#607d8b"></path></g></g><g fill="#000000" fill-rule="nonzero" stroke="none" stroke-width="1" stroke-linecap="butt" stroke-linejoin="miter" stroke-miterlimit="10" stroke-dasharray="" stroke-dashoffset="0" font-family="none" font-weight="none" font-size="none" text-anchor="none" style="mix-blend-mode: normal"><g><path d="M72.65833,218.63333v-1.31l1.13,-0.16l5.3,-13.69h1.76l5.21,13.69l1.11,0.16v1.31h-4.35v-1.31l1.15,-0.2l-1,-2.79h-6.08l-1.03,2.79l1.15,0.2v1.31zM79.91833,206.10333l-2.39,6.51h4.81l-2.35,-6.51zM88.33833,218.63333v-1.31l1.7,-0.29v-8.05l-1.7,-0.29v-1.33h3.53l0.15,1.68c0.37333,-0.6 0.84333,-1.06333 1.41,-1.39c0.56667,-0.33333 1.21,-0.5 1.93,-0.5v0c1.21333,0 2.15333,0.35667 2.82,1.07c0.66667,0.71333 1,1.81333 1,3.3v0v5.51l1.7,0.29v1.31h-5.45v-1.31l1.7,-0.29v-5.47c0,-0.99333 -0.19667,-1.69667 -0.59,-2.11c-0.39333,-0.42 -0.99,-0.63 -1.79,-0.63v0c-0.59333,0 -1.11667,0.14333 -1.57,0.43c-0.45333,0.28667 -0.81667,0.67333 -1.09,1.16v0v6.62l1.7,0.29v1.31zM102.27833,213.12333v-0.23c0,-1.66667 0.45,-3.04 1.35,-4.12c0.90667,-1.08 2.13333,-1.62 3.68,-1.62v0c1.55333,0 2.78333,0.54 3.69,1.62c0.90667,1.07333 1.36,2.44667 1.36,4.12v0v0.23c0,1.68 -0.45,3.05667 -1.35,4.13c-0.90667,1.06667 -2.13333,1.6 -3.68,1.6v0c-1.56,0 -2.79333,-0.53667 -3.7,-1.61c-0.9,-1.07333 -1.35,-2.44667 -1.35,-4.12zM104.32833,212.89333v0.23c0,1.19333 0.25,2.18 0.75,2.96c0.50667,0.78 1.25667,1.17 2.25,1.17v0c0.97333,0 1.71333,-0.39 2.22,-1.17c0.50667,-0.78 0.76,-1.76667 0.76,-2.96v0v-0.23c0,-1.18 -0.25333,-2.16 -0.76,-2.94c-0.50667,-0.78667 -1.25333,-1.18 -2.24,-1.18v0c-0.98667,0 -1.73,0.39333 -2.23,1.18c-0.5,0.78 -0.75,1.76 -0.75,2.94zM113.92833,218.63333v-1.31l1.7,-0.29v-8.05l-1.7,-0.29v-1.33h3.54l0.14,1.68c0.37333,-0.6 0.84333,-1.06333 1.41,-1.39c0.56667,-0.33333 1.21,-0.5 1.93,-0.5v0c1.22,0 2.16333,0.35667 2.83,1.07c0.66667,0.71333 1,1.81333 1,3.3v0v5.51l1.7,0.29v1.31h-5.45v-1.31l1.7,-0.29v-5.47c0,-0.99333 -0.19667,-1.69667 -0.59,-2.11c-0.39333,-0.42 -0.99333,-0.63 -1.8,-0.63v0c-0.59333,0 -1.11667,0.14333 -1.57,0.43c-0.45333,0.28667 -0.81667,0.67333 -1.09,1.16v0v6.62l1.7,0.29v1.31zM138.66833,207.36333v1.33l-1.01,0.15l-4.29,11.52c-0.28667,0.76 -0.69667,1.42 -1.23,1.98c-0.53333,0.56667 -1.25,0.85 -2.15,0.85v0c-0.16,0 -0.37,-0.02 -0.63,-0.06c-0.25333,-0.04 -0.45,-0.07667 -0.59,-0.11v0l0.21,-1.62c-0.04667,-0.00667 0.07667,0.00333 0.37,0.03c0.28667,0.02 0.46667,0.03 0.54,0.03v0c0.44,0 0.79333,-0.19 1.06,-0.57c0.27333,-0.38 0.51,-0.81667 0.71,-1.31v0l0.49,-1.17l-3.72,-9.56l-1.03,-0.16v-1.33h4.55v1.33l-1.27,0.2l1.95,5.57l0.38,1.43h0.06l2.34,-7l-1.28,-0.2v-1.33zM139.65833,218.63333v-1.31l1.7,-0.29v-8.05l-1.7,-0.29v-1.33h3.54l0.14,1.47c0.36,-0.53333 0.82667,-0.94667 1.4,-1.24c0.56667,-0.29333 1.22667,-0.44 1.98,-0.44v0c0.74667,0 1.39,0.17667 1.93,0.53c0.53333,0.34667 0.93667,0.86667 1.21,1.56v0c0.35333,-0.64 0.82333,-1.14667 1.41,-1.52c0.58,-0.38 1.26,-0.57 2.04,-0.57v0c1.15333,0 2.06333,0.39667 2.73,1.19c0.66667,0.78667 1,1.97 1,3.55v0v5.14l1.7,0.29v1.31h-5.46v-1.31l1.7,-0.29v-5.16c0,-1.10667 -0.19333,-1.89333 -0.58,-2.36c-0.38,-0.46 -0.94667,-0.69 -1.7,-0.69v0c-0.71333,0 -1.28667,0.25333 -1.72,0.76c-0.43333,0.5 -0.68333,1.13333 -0.75,1.9v0v5.55l1.69,0.29v1.31h-5.44v-1.31l1.69,-0.29v-5.16c0,-1.05333 -0.19667,-1.82333 -0.59,-2.31c-0.38667,-0.49333 -0.95333,-0.74 -1.7,-0.74v0c-0.62667,0 -1.14,0.13 -1.54,0.39c-0.4,0.25333 -0.71,0.61333 -0.93,1.08v0v6.74l1.7,0.29v1.31zM160.12833,213.12333v-0.23c0,-1.66667 0.45333,-3.04 1.36,-4.12c0.9,-1.08 2.12333,-1.62 3.67,-1.62v0c1.56,0 2.79333,0.54 3.7,1.62c0.9,1.07333 1.35,2.44667 1.35,4.12v0v0.23c0,1.68 -0.45,3.05667 -1.35,4.13c-0.9,1.06667 -2.12667,1.6 -3.68,1.6v0c-1.56,0 -2.79,-0.53667 -3.69,-1.61c-0.90667,-1.07333 -1.36,-2.44667 -1.36,-4.12zM162.17833,212.89333v0.23c0,1.19333 0.25333,2.18 0.76,2.96c0.5,0.78 1.24667,1.17 2.24,1.17v0c0.97333,0 1.71333,-0.39 2.22,-1.17c0.50667,-0.78 0.76,-1.76667 0.76,-2.96v0v-0.23c0,-1.18 -0.25333,-2.16 -0.76,-2.94c-0.50667,-0.78667 -1.25333,-1.18 -2.24,-1.18v0c-0.98667,0 -1.73,0.39333 -2.23,1.18c-0.5,0.78 -0.75,1.76 -0.75,2.94zM180.28833,218.63333l-0.14,-1.66c-0.35333,0.6 -0.81,1.06333 -1.37,1.39c-0.56,0.32667 -1.20333,0.49 -1.93,0.49v0c-1.22,0 -2.17333,-0.39 -2.86,-1.17c-0.69333,-0.78667 -1.04,-2.01 -1.04,-3.67v0v-5.03l-1.29,-0.29v-1.33h1.29h2.06v6.67c0,1.2 0.17667,2.02667 0.53,2.48c0.35333,0.45333 0.90333,0.68 1.65,0.68v0c0.73333,0 1.33667,-0.15 1.81,-0.45c0.47333,-0.29333 0.83333,-0.71 1.08,-1.25v0v-6.51l-1.51,-0.29v-1.33h1.51h2.05v9.67l1.29,0.29v1.31zM193.56833,208.41333l0.1,2.49h-1.54l-0.33,-1.35c-0.25333,-0.23333 -0.56667,-0.42333 -0.94,-0.57c-0.38,-0.14 -0.81,-0.21 -1.29,-0.21v0c-0.72667,0 -1.27,0.16 -1.63,0.48c-0.35333,0.32 -0.53,0.70333 -0.53,1.15v0c0,0.44667 0.15667,0.8 0.47,1.06c0.31333,0.25333 0.95,0.48 1.91,0.68v0c1.42,0.30667 2.47667,0.72333 3.17,1.25c0.7,0.52667 1.05,1.23 1.05,2.11v0c0,1 -0.40667,1.81 -1.22,2.43c-0.80667,0.61333 -1.86333,0.92 -3.17,0.92v0c-0.85333,0 -1.62,-0.09667 -2.3,-0.29c-0.68,-0.2 -1.28667,-0.48667 -1.82,-0.86v0l-0.01,-2.58h1.54l0.38,1.51c0.24,0.22 0.56333,0.37667 0.97,0.47c0.40667,0.1 0.82,0.15 1.24,0.15v0c0.72667,0 1.29667,-0.14667 1.71,-0.44c0.41333,-0.3 0.62,-0.69 0.62,-1.17v0c0,-0.44667 -0.17,-0.81667 -0.51,-1.11c-0.34667,-0.29333 -0.99667,-0.54667 -1.95,-0.76v0c-1.37333,-0.3 -2.40667,-0.70667 -3.1,-1.22c-0.69333,-0.51333 -1.04,-1.20667 -1.04,-2.08v0c0,-0.92 0.39,-1.70333 1.17,-2.35c0.78,-0.64667 1.79667,-0.97 3.05,-0.97v0c0.85333,0 1.62,0.11333 2.3,0.34c0.68,0.22 1.24667,0.52667 1.7,0.92z"></path></g></g></svg>